# xmcd
#
# Track frame offsets: 
#        150
#        19737
#        36987
#        55228
#        79045
#        98282
#        122194
#        151944
#        170662
#
# Disc length: 2582 seconds
#
# Revision: 1
# Processed by: cddbd v1.5.2PL0 Copyright (c) Steve Scherf et al.
# Submitted via: ExactAudioCopy v1.1
#
DISCID=660a1409
DTITLE=Muskee Gang - Rimshots In The Dark
DYEAR=1986
DGENRE=Blues
TTITLE0=Schizo Like You
TTITLE1=Shaky Grounds
TTITLE2=Missing You
TTITLE3=Too Blind To See
TTITLE4=Flip-Side
TTITLE5=Instinct
TTITLE6=I've Always Been Lonely
TTITLE7=I Want You
TTITLE8=So Many Roads
EXTD=
EXTT0=
EXTT1=
EXTT2=
EXTT3=
EXTT4=
EXTT5=
EXTT6=
EXTT7=
EXTT8=
PLAYORDER=
